<?xml version="1.0" encoding="utf-8"?>
<!-- Generator: Adobe Illustrator 28.0.0, SVG Export Plug-In . SVG Version: 6.00 Build 0)  -->
<svg version="1.1" id="Layer_1" xmlns="http://www.w3.org/2000/svg" xmlns:xlink="http://www.w3.org/1999/xlink" x="0px" y="0px"
	 viewBox="0 0 589 144.9" style="enable-background:new 0 0 589 144.9;" xml:space="preserve">
<style type="text/css">
	.st0{fill:#FFFFFF;}
	.st1{fill:#B4DC32;}
</style>
<g>
	<g>
		<path class="st0" d="M332.9,116.7l6.9-19.3l6.5,19.3H332.9z M349.3,82.9h-18.6L308.3,142h16.3l4.3-12.5h21.2l1.4,4.2
			c2,6.1,5.1,8.3,12.2,8.3h8.5L349.3,82.9z"/>
		<path class="st0" d="M216.2,128.3c-9,0-12.2-6.3-12.2-16.1c0-10.1,4.5-15.7,12.2-15.7c9,0,12.3,6.3,12.3,15.7
			C228.5,122.4,224.1,128.3,216.2,128.3 M216.2,81.8c-14.5,0-29,10-29,30.4c0,19.9,12.1,30.9,29,30.9c15.4,0,29.2-10.1,29.2-30.9
			C245.4,92.6,233.2,81.8,216.2,81.8"/>
		<path class="st0" d="M277.9,110.1h-7.3V96.2h7.8c7.2,0,9.6,2,9.6,6.9C288,108,285.1,110.1,277.9,110.1 M295.2,119.7
			c6.3-3,9.7-9.2,9.7-16.5c0-13.3-7.9-20.4-24.7-20.4h-25.8V142h16.2v-18.8h10.1l4.6,10.2c2.6,5.8,5.6,8.6,13,8.6h8.7L295.2,119.7z"
			/>
		<path class="st0" d="M525.5,82.9h16.4l15.3,26.9l14.5-26.9h8.5c5.8,0,8,2.7,8,8V142h-15.5v-35.6L562.5,125h-11.2L541,106.4V142
			h-15.5V82.9z"/>
		<path class="st0" d="M496.7,82.9h8.9c5.5,0,7.9,2.7,7.9,8V142h-16.7V82.9z"/>
		<path class="st0" d="M489.6,97.5h-17.5V142h-16.7V97.5h-18.2V82.9h44.4c5.6,0,7.9,2.7,7.9,8V97.5z"/>
		<path class="st0" d="M377,82.9H392l22.6,33.8V82.9h7.6c5.6,0,7.9,2.7,7.9,8V142h-14.8l-22.8-32.8V142H377V82.9z"/>
		<path class="st0" d="M183.3,97.5h-17.5V142h-16.7V97.5h-18.2V82.9h44.4c5.6,0,7.9,2.7,7.9,8V97.5z"/>
		<path class="st0" d="M97.7,128.3c-9,0-12.2-6.3-12.2-16.1c0-10.1,4.5-15.7,12.2-15.7c9,0,12.3,6.3,12.3,15.7
			C110.1,122.4,105.7,128.3,97.7,128.3 M97.7,81.8c-14.5,0-29,10-29,30.4c0,19.9,12.1,30.9,29,30.9c15.4,0,29.2-10.1,29.2-30.9
			C127,92.6,114.8,81.8,97.7,81.8"/>
		<path class="st0" d="M23.4,92.4L23.4,92.4L23,91c-2-6.1-6.3-8.2-13.3-8.2H1l20.2,49.4c2.8,6.8,6.6,10.5,13.5,10.5
			c2,0,3.8-0.3,5.3-0.9L23.4,92.4z"/>
		<path class="st0" d="M50.5,82.9l-12.4,33.4c-0.7,2-0.8,4.2-0.1,6.2l5.7,16.9c1.6-1.6,3-3.7,4.1-6.5l20.3-50H50.5z"/>
	</g>
	<path class="st1" d="M254.4,17.9h5.8c2,0,3.4,0.6,4.4,1.9c0.9,1.3,1.4,3,1.4,5.2v32.8h-11.5V17.9z M255.4,11.4
		c-1.2-1.1-1.8-2.5-1.8-4.3c0-1.8,0.6-3.3,1.8-4.4c1.2-1.1,2.7-1.6,4.6-1.6c1.9,0,3.4,0.5,4.6,1.6c1.2,1.1,1.8,2.5,1.8,4.4
		c0,1.8-0.6,3.3-1.9,4.3c-1.2,1.1-2.8,1.6-4.7,1.6C258.1,13,256.6,12.4,255.4,11.4"/>
	<path class="st1" d="M310.5,21c2.4,2.7,3.6,6.6,3.6,11.6v25.2h-11.6V34.1c0-4.7-2-7.1-6-7.1c-2.5,0-5.2,1.2-8,3.5v27.3h-11.6V17.9
		h5.8c3,0,4.8,1.5,5.5,4.4c1.8-1.7,3.7-3,5.7-4c2-0.9,4.2-1.4,6.7-1.4C304.8,16.9,308.1,18.3,310.5,21"/>
	<path class="st1" d="M323.3,55.4v-9c2,0.9,4.2,1.7,6.6,2.2c2.4,0.5,4.8,0.8,7.1,0.8c2.9,0,5-0.2,6.3-0.7c1.3-0.5,2-1.3,2-2.6
		c0-1.1-0.5-2-1.5-2.5c-1-0.5-2.7-1-5.1-1.5l-3.3-0.8c-2.4-0.6-4.4-1.4-6-2.2c-1.6-0.8-3-2.1-4.1-3.7c-1.1-1.7-1.6-3.9-1.6-6.6
		c0-3.7,1.5-6.6,4.4-8.8c3-2.2,7-3.2,12.1-3.2c4.1,0,7.4,0.6,10,1.8c1.5,0.7,2.5,1.6,3.1,2.5c0.5,1,0.8,2.4,0.8,4.2v3.4
		c-1.7-0.9-3.5-1.6-5.6-2.1c-2.1-0.5-4.1-0.8-6.1-0.8c-2.9,0-4.9,0.2-6.2,0.7c-1.2,0.4-1.9,1.2-1.9,2.4c0,1,0.5,1.7,1.6,2.3
		c1,0.5,2.9,1.1,5.5,1.7c1.4,0.3,2.7,0.6,3.7,0.9c3.5,0.9,6.2,2.3,8.1,4.1c1.9,1.8,2.8,4.6,2.8,8.4c0,4-1.6,7-4.8,9.1
		c-3.2,2.1-7.5,3.1-12.9,3.1C332.4,58.8,327.4,57.7,323.3,55.4"/>
	<path class="st1" d="M390.2,48.5c1-0.2,2.2-0.5,3.6-0.9v9c-3.3,1.4-6.8,2-10.5,2c-9.6,0-14.4-5.6-14.4-16.7V27.5h-7.2v-9.7h7.2V5.9
		h5.8c2,0,3.4,0.6,4.4,1.9c0.9,1.3,1.4,3,1.4,5.2v4.8h13.2v9.7h-13.2v13.8c0,2.4,0.5,4.2,1.5,5.5c1,1.3,2.6,1.9,4.9,1.9
		C388.1,48.8,389.2,48.7,390.2,48.5"/>
	<path class="st1" d="M403.2,17.9h5.8c2,0,3.4,0.6,4.4,1.9c0.9,1.3,1.4,3,1.4,5.2v32.8h-11.5V17.9z M404.2,11.4
		c-1.2-1.1-1.8-2.5-1.8-4.3c0-1.8,0.6-3.3,1.8-4.4c1.2-1.1,2.7-1.6,4.6-1.6c1.9,0,3.4,0.5,4.6,1.6c1.2,1.1,1.8,2.5,1.8,4.4
		c0,1.8-0.6,3.3-1.9,4.3c-1.2,1.1-2.8,1.6-4.7,1.6C406.9,13,405.4,12.4,404.2,11.4"/>
	<path class="st1" d="M452.2,48.5c1-0.2,2.2-0.5,3.6-0.9v9c-3.3,1.4-6.8,2-10.5,2c-9.6,0-14.4-5.6-14.4-16.7V27.5h-7.2v-9.7h7.2V5.9
		h5.8c2,0,3.4,0.6,4.4,1.9c0.9,1.3,1.4,3,1.4,5.2v4.8h13.2v9.7h-13.2v13.8c0,2.4,0.5,4.2,1.5,5.5c1,1.3,2.6,1.9,4.9,1.9
		C450.1,48.8,451.3,48.7,452.2,48.5"/>
	<path class="st1" d="M502.4,17.9v39.9h-5.8c-3,0-4.9-1.5-5.5-4.4c-1.8,1.7-3.7,3.1-5.7,4c-2,1-4.2,1.4-6.6,1.4
		c-4.2,0-7.4-1.4-9.8-4.1c-2.4-2.8-3.6-6.6-3.6-11.6V17.9H477v23.7c0,4.7,2,7.1,5.9,7.1c2.7,0,5.4-1.2,8-3.5V17.9H502.4z"/>
	<path class="st1" d="M539.5,48.5c1-0.2,2.2-0.5,3.6-0.9v9c-3.3,1.4-6.8,2-10.5,2c-9.6,0-14.4-5.6-14.4-16.7V27.5H511v-9.7h7.3V5.9
		h5.8c2,0,3.4,0.6,4.4,1.9c0.9,1.3,1.4,3,1.4,5.2v4.8h13.2v9.7h-13.2v13.8c0,2.4,0.5,4.2,1.5,5.5c1,1.3,2.6,1.9,4.9,1.9
		C537.4,48.8,538.6,48.7,539.5,48.5"/>
	<path class="st1" d="M575.2,45.9c1.5-2,2.3-4.7,2.3-8.1c0-3.4-0.7-6.1-2.2-8.1c-1.5-2-3.6-3-6.4-3c-2.7,0-4.8,1-6.4,3
		c-1.5,2-2.3,4.7-2.3,8.1c0,3.4,0.7,6.1,2.2,8.1c1.5,2,3.6,3,6.4,3C571.6,48.9,573.7,47.9,575.2,45.9 M558.8,56.4
		c-3.1-1.6-5.6-4-7.4-7.2c-1.9-3.2-2.8-7-2.8-11.4c0-4.4,0.9-8.2,2.8-11.3c1.9-3.1,4.4-5.5,7.5-7.1c3.1-1.6,6.4-2.4,9.9-2.4
		c3.6,0,6.9,0.8,10,2.4c3.1,1.6,5.5,4,7.4,7.1c1.9,3.1,2.8,6.9,2.8,11.3c0,4.4-1,8.2-2.8,11.4c-1.9,3.2-4.4,5.6-7.5,7.2
		c-3.1,1.6-6.4,2.4-9.9,2.4C565.3,58.8,561.9,58,558.8,56.4"/>
</g>
</svg>
